<svg xmlns:svg="http://www.w3.org/2000/svg" version="1.0" xmlns="http://www.w3.org/2000/svg" class="svg" width="60" height="80" viewBox="0 0 40 51">
<path fill="#bc204b" d="M145.365,23.562a36.079,36.079,0,0,0-9.09,10.349c22.25-7.5,19.895,25.749-.778,21.458a29.149,29.149,0,0,1-4.156,13.639c0.58-4.514,2.5-8.785-1.038-13.891-2.019-2.913-9.825-1.845-12.467-4.8-7.339-8.2.569-21.568,11.948-15.65-1.22-3.867-2.13-11.973.258-16.156,1.771-.123,2.4.862,3.637,1.262,0.54,0.556-.412,1.084-0.262,2.019,0.713-.908,1.167-2.064,1.819-3.029a6.5,6.5,0,0,1,3.378,2.274c-0.653,1.554-1.5,2.912-2.079,4.543,1.963-.953,3.925-4.094,6.753-5.049,1.425,0.3,1.447,1.959,2.077,3.029" transform="translate(-115 -18.5)"/>
</svg>
