<svg xmlns="http://www.w3.org/2000/svg" width="8.844" height="8.688" viewBox="0 0 8.844 8.688">
  <defs>
    <style>
      .cls-1 {
        fill: #3f3e41;
        fill-rule: evenodd;
      }
    </style>
  </defs>
  <path id="copy.svg" class="cls-1" d="M575.744,31.754a4.161,4.161,0,0,0,2.328-2.286,4.581,4.581,0,0,0,0-3.444,4.175,4.175,0,0,0-.924-1.368,4.261,4.261,0,0,0-1.4-.906,4.862,4.862,0,0,0-3.522,0,4.276,4.276,0,0,0-1.4.906,4.1,4.1,0,0,0-.918,1.368,4.658,4.658,0,0,0,0,3.444,4.166,4.166,0,0,0,.918,1.374,4.227,4.227,0,0,0,1.4.912A4.864,4.864,0,0,0,575.744,31.754Zm-3.354-.366a3.875,3.875,0,0,1-1.26-.828,3.777,3.777,0,0,1-.834-1.248,4.015,4.015,0,0,1-.3-1.56,4.06,4.06,0,0,1,.3-1.566,3.7,3.7,0,0,1,.834-1.248,3.916,3.916,0,0,1,1.266-.822,4.363,4.363,0,0,1,3.18,0,3.933,3.933,0,0,1,1.272.828,3.735,3.735,0,0,1,.84,1.248,4.048,4.048,0,0,1,.3,1.572,3.973,3.973,0,0,1-.312,1.6,3.749,3.749,0,0,1-.852,1.236,3.867,3.867,0,0,1-1.272.8,4.253,4.253,0,0,1-1.572.288A4.122,4.122,0,0,1,572.39,31.388Zm2.526-1a2.736,2.736,0,0,0,.684-0.342,2.54,2.54,0,0,0,.5-0.456,1.727,1.727,0,0,0,.288-0.462L575.6,28.9a1.494,1.494,0,0,1-.66.666,1.906,1.906,0,0,1-.912.246,1.772,1.772,0,0,1-.666-0.138,1.93,1.93,0,0,1-.618-0.4,2.119,2.119,0,0,1-.456-0.654,2.081,2.081,0,0,1-.18-0.882,2.469,2.469,0,0,1,.12-0.75,2.079,2.079,0,0,1,.354-0.672,1.824,1.824,0,0,1,.588-0.48A1.768,1.768,0,0,1,574,25.652a2.3,2.3,0,0,1,.39.036,1.7,1.7,0,0,1,.42.132,1.566,1.566,0,0,1,.4.264,1.3,1.3,0,0,1,.306.432l0.792-.252a2,2,0,0,0-.894-0.99,2.864,2.864,0,0,0-1.41-.342,2.734,2.734,0,0,0-1.212.252,2.591,2.591,0,0,0-.852.648,2.7,2.7,0,0,0-.5.9,3.171,3.171,0,0,0-.168,1.008,2.757,2.757,0,0,0,.234,1.152,2.685,2.685,0,0,0,.624.876,2.827,2.827,0,0,0,.894.558,2.86,2.86,0,0,0,1.056.2A2.564,2.564,0,0,0,574.916,30.392Z" transform="translate(-569.562 -23.406)"/>
</svg>
