<svg xmlns="http://www.w3.org/2000/svg" width="190" height="30" viewBox="0 0 190 30">
  <defs>
    <style>
      .cls-1 {
        fill: #fd5c08;
        fill-rule: evenodd;
      }
    </style>
  </defs>
  <path id="Logo.svg" class="cls-1" d="M374.99,30.773h9.281V52.827h7.954V30.773h9.281V22.989H374.99v7.784Zm68.077-7.784L431.391,53.01l-6.886-10.758a9.108,9.108,0,0,0,1.546-1.148,9.221,9.221,0,0,0,1.611-2.056A10.256,10.256,0,0,0,429.02,33.9a9.709,9.709,0,0,0-.768-3.74,11.02,11.02,0,0,0-2.118-3.285,11.787,11.787,0,0,0-3.217-2.663,9.61,9.61,0,0,0-4.095-1.219H405.483V52.827h7.955V43.746h3l5.877,9.081h17.612l2.219-5.189h8.136l2.26,5.189h8.587L449.444,22.989h-6.377Zm-29.629,7.784h4.932a2.2,2.2,0,0,1,1.649.8,3.244,3.244,0,0,1,.811,2.356,3.931,3.931,0,0,1-.727,2.462,1.924,1.924,0,0,1-1.528.872h-5.137V30.773Zm35.267,10.378h-5.054l2.572-7.817Zm24.607,0.687-6.421-18.849H458.34l11.687,29.837h6.544l11.6-29.837h-8.551Zm24.975-.687h11.932V34.664H498.287V30.773h14.584V22.989H490.333V52.827h22.538V46.34H498.287V41.151ZM524.8,22.989h-7.955V52.827h22.538V46.34H524.8V22.989Zm31.364,0-5.988,12.244-5.873-12.244h-8.843l10.552,20.167v9.67h7.955V43.237l11.04-20.248h-8.843Z" transform="translate(-375 -23)"/>
</svg>
